<svg width="1200" height="900" viewBox="0 0 1200 900" fill="none" xmlns="http://www.w3.org/2000/svg">
  <rect width="1200" height="900" rx="48" fill="#0B0B0F"/>
  <rect x="28" y="28" width="1144" height="844" rx="36" fill="url(#bg)"/>
  <circle cx="936" cy="624" r="212" fill="url(#glow)" opacity="0.86"/>
  <circle cx="252" cy="248" r="164" fill="url(#glowTwo)" opacity="0.54"/>
  <path d="M142 695H1058" stroke="#F1E7D8" stroke-opacity="0.18"/>
  <path d="M142 581H1058" stroke="#F1E7D8" stroke-opacity="0.08"/>
  <path d="M142 467H1058" stroke="#F1E7D8" stroke-opacity="0.08"/>
  <path d="M142 353H1058" stroke="#F1E7D8" stroke-opacity="0.08"/>
  <path d="M142 239H1058" stroke="#F1E7D8" stroke-opacity="0.08"/>
  <rect x="170" y="120" width="322" height="52" rx="26" fill="#131319" stroke="#F1E7D8" stroke-opacity="0.22"/>
  <text x="212" y="153" fill="#E8DDCE" font-family="Manrope, Arial, sans-serif" font-size="20" letter-spacing="0.28em">TRANSFORMATION</text>
  <path d="M180 650C290 620 354 582 424 520C507 447 571 396 645 373C714 351 795 352 911 376" stroke="url(#flowOne)" stroke-width="3"/>
  <path d="M180 705C317 680 412 625 511 527C593 446 672 409 763 404C827 400 893 416 1014 466" stroke="url(#flowTwo)" stroke-width="2"/>
  <path d="M182 598C268 562 344 513 409 449C492 368 560 315 630 282C715 241 814 228 1014 246" stroke="url(#flowThree)" stroke-width="2"/>
  <rect x="220" y="568" width="118" height="127" rx="22" fill="#16161C" stroke="#F1E7D8" stroke-opacity="0.12"/>
  <rect x="374" y="520" width="118" height="175" rx="22" fill="#16161C" stroke="#F1E7D8" stroke-opacity="0.12"/>
  <rect x="528" y="440" width="118" height="255" rx="22" fill="#17171F" stroke="#F1E7D8" stroke-opacity="0.12"/>
  <rect x="682" y="352" width="118" height="343" rx="22" fill="#191922" stroke="#F1E7D8" stroke-opacity="0.12"/>
  <rect x="836" y="290" width="118" height="405" rx="22" fill="#1C1C25" stroke="#F1E7D8" stroke-opacity="0.12"/>
  <rect x="246" y="600" width="66" height="68" rx="16" fill="url(#bar)"/>
  <rect x="400" y="556" width="66" height="112" rx="16" fill="url(#bar)"/>
  <rect x="554" y="472" width="66" height="196" rx="16" fill="url(#bar)"/>
  <rect x="708" y="392" width="66" height="276" rx="16" fill="url(#bar)"/>
  <rect x="862" y="334" width="66" height="334" rx="16" fill="url(#bar)"/>
  <circle cx="529" cy="438" r="10" fill="#F0E3D2"/>
  <circle cx="683" cy="350" r="10" fill="#F0E3D2"/>
  <circle cx="837" cy="288" r="10" fill="#F0E3D2"/>
  <defs>
    <linearGradient id="bg" x1="600" y1="28" x2="600" y2="872" gradientUnits="userSpaceOnUse">
      <stop stop-color="#111118"/>
      <stop offset="1" stop-color="#0C0C11"/>
    </linearGradient>
    <radialGradient id="glow" cx="0" cy="0" r="1" gradientUnits="userSpaceOnUse" gradientTransform="translate(936 624) rotate(90) scale(212)">
      <stop stop-color="#D6B38B" stop-opacity="0.48"/>
      <stop offset="1" stop-color="#D6B38B" stop-opacity="0"/>
    </radialGradient>
    <radialGradient id="glowTwo" cx="0" cy="0" r="1" gradientUnits="userSpaceOnUse" gradientTransform="translate(252 248) rotate(90) scale(164)">
      <stop stop-color="#6A7FB0" stop-opacity="0.28"/>
      <stop offset="1" stop-color="#6A7FB0" stop-opacity="0"/>
    </radialGradient>
    <linearGradient id="flowOne" x1="180" y1="510" x2="911" y2="510" gradientUnits="userSpaceOnUse">
      <stop stop-color="#E8DDCE"/>
      <stop offset="1" stop-color="#7A6855"/>
    </linearGradient>
    <linearGradient id="flowTwo" x1="180" y1="552" x2="1014" y2="552" gradientUnits="userSpaceOnUse">
      <stop stop-color="#7A6855"/>
      <stop offset="0.52" stop-color="#E8DDCE"/>
      <stop offset="1" stop-color="#6A7FB0"/>
    </linearGradient>
    <linearGradient id="flowThree" x1="182" y1="422" x2="1014" y2="422" gradientUnits="userSpaceOnUse">
      <stop stop-color="#6A7FB0"/>
      <stop offset="0.58" stop-color="#E8DDCE"/>
      <stop offset="1" stop-color="#7A6855"/>
    </linearGradient>
    <linearGradient id="bar" x1="279" y1="334" x2="279" y2="668" gradientUnits="userSpaceOnUse">
      <stop stop-color="#EDE1D0"/>
      <stop offset="1" stop-color="#A68D73"/>
    </linearGradient>
  </defs>
</svg>
